<?xml version="1.0" encoding="utf-8"?>
<!-- Generator: Adobe Illustrator 16.0.0, SVG Export Plug-In . SVG Version: 6.00 Build 0)  -->
<!DOCTYPE svg PUBLIC "-//W3C//DTD SVG 1.1//EN" "http://www.w3.org/Graphics/SVG/1.1/DTD/svg11.dtd">
<svg version="1.1"
	 id="Layer_1" xmlns:cc="http://creativecommons.org/ns#" xmlns:rdf="http://www.w3.org/1999/02/22-rdf-syntax-ns#" xmlns:svg="http://www.w3.org/2000/svg" xmlns:dc="http://purl.org/dc/elements/1.1/"
	 xmlns="http://www.w3.org/2000/svg" xmlns:xlink="http://www.w3.org/1999/xlink" x="0px" y="0px" width="612px" height="792px"
	 viewBox="0 0 612 792" enable-background="new 0 0 612 792" xml:space="preserve">
<path fill="#FFFFFF" d="M108.821,138.577c-3.458,0-6.312,2.854-6.312,6.312v35.381c-6.832,0.62-16.89,3.855-18.168,15.491
	c-0.91,13.858,6.235,42.096,24.48,42.649c18.245-0.553,25.196-28.791,24.289-42.649c-0.14-1.266-0.431-2.37-0.765-3.442h86.827
	c1.971,4.203,4.108,8.416,6.12,12.623c-27.316,16.854-45.518,46.951-45.518,81.472v78.795c0,2.839,2.325,5.164,5.164,5.164
	c2.839,0,5.164-2.325,5.164-5.164v-25.245h9.945v-24.863h-9.945v-28.688c0-30.472,15.617-56.973,39.397-72.101
	c0.919,1.996,1.989,3.922,2.869,5.929c1.106,2.518,4.278,4.398,6.885,4.398h40.545c6.699,6.648,16.015,10.71,26.201,10.71
	s19.503-4.062,26.201-10.71h40.545c2.609,0,5.97-1.881,7.076-4.398c0.873-1.992,1.771-3.947,2.678-5.929
	c23.78,15.128,39.397,41.629,39.397,72.101v28.688h-9.945v24.863h9.945v25.245c0,2.839,2.325,5.164,5.164,5.164
	s5.163-2.325,5.163-5.164v-78.795c0-34.521-18.201-64.617-45.518-81.472c1.994-4.207,4.15-8.42,6.12-12.623
	c40.138,0,49.979,0,86.828,0c-0.334,1.072-0.625,2.177-0.766,3.442c-0.907,13.858,6.044,42.096,24.289,42.649
	c18.245-0.553,25.39-28.791,24.479-42.649c-1.277-11.636-11.336-14.871-18.168-15.491v-35.381c0-3.458-2.853-6.312-6.312-6.312
	c-3.457,0-6.12,2.854-6.12,6.312v35.19c-53.194-0.056-74.932,0-122.399,0c-0.606-2.419-1.106-4.802-1.722-7.268
	c-0.55-2.202-2.703-3.821-4.973-3.825h-123.93c-2.23,0.055-4.434,1.661-4.973,3.825c-0.622,2.474-1.118,4.852-1.721,7.268
	c-42.806,0-89.252-0.033-122.4,0v-35.19C114.941,141.431,112.28,138.577,108.821,138.577z M54.315,151.965
	c-7.338-0.013-12.959,0.771-16.447,1.721c-17.621,4.995,0.104,13.76,17.404,15.683c13.418,1.021,26.834-0.004,40.162-2.104
	c-0.138-3.545-0.357-7.176-0.382-10.71c-3.977-0.06-8.725-0.571-14.152-1.721C70.643,152.662,61.653,151.965,54.315,151.965z
	 M149.366,151.965c-9.062,0.122-18.141,1.076-27.157,2.486c-0.081,0.378-0.095,0.783-0.191,1.147
	c-0.226,3.062,0.007,6.138,0.191,9.371c4.065,0.043,8.73,0.531,14.344,1.722c20.513,4.344,36.059,3.241,43.031,1.338
	c17.622-4.996,0.087-13.759-17.213-15.682c-3.019-0.231-5.971-0.352-8.989-0.383C152.087,151.95,150.661,151.946,149.366,151.965z
	 M458.617,151.965c-3.018,0.031-5.97,0.151-8.988,0.383c-17.299,1.923-34.835,10.687-17.213,15.682
	c6.974,1.903,22.519,3.006,43.031-1.338c5.613-1.191,10.278-1.678,14.344-1.722c0.188-3.233,0.417-6.309,0.191-9.371
	c-0.092-0.365-0.114-0.77-0.191-1.147C479.486,152.839,468.979,151.839,458.617,151.965z M557.685,151.965
	c-7.338,0-16.327,0.697-26.583,2.869c-5.428,1.15-10.176,1.663-14.152,1.721c-0.023,3.534-0.245,7.165-0.383,10.71
	c13.328,2.1,26.743,3.125,40.162,2.104c17.3-1.922,35.025-10.688,17.404-15.683C570.645,152.735,565.023,151.956,557.685,151.965z
	 M221.85,297.506c-3.427,0.697-5.929,3.82-5.929,7.458v44.944c0,4.159,3.3,7.65,7.458,7.65h165.24c4.158,0,7.459-3.491,7.459-7.65
	v-44.944c0-4.159-3.301-7.458-7.459-7.458H223.38C222.86,297.506,222.339,297.406,221.85,297.506z M223.38,368.842
	c-4.159,0-7.458,3.3-7.458,7.459v45.135c0,4.158,3.3,7.458,7.458,7.458h165.24c4.158,0,7.459-3.3,7.459-7.458v-45.135
	c0-4.159-3.301-7.459-7.459-7.459H223.38z M221.85,440.37c-3.427,0.697-5.929,3.819-5.929,7.459v44.943c0,4.158,3.3,7.65,7.458,7.65
	h165.24c4.158,0,7.459-3.492,7.459-7.65v-44.943c0-4.159-3.301-7.459-7.459-7.459H223.38
	C222.86,440.37,222.339,440.271,221.85,440.37z"/>
</svg>
