<?xml version="1.0" encoding="utf-8"?>
<!-- Generator: Adobe Illustrator 16.0.0, SVG Export Plug-In . SVG Version: 6.00 Build 0)  -->
<!DOCTYPE svg PUBLIC "-//W3C//DTD SVG 1.1//EN" "http://www.w3.org/Graphics/SVG/1.1/DTD/svg11.dtd">
<svg version="1.1" id="Layer_1" xmlns="http://www.w3.org/2000/svg" xmlns:xlink="http://www.w3.org/1999/xlink" x="0px" y="0px"
	 width="20px" height="20px" viewBox="0 0 20 20" enable-background="new 0 0 20 20" xml:space="preserve">
<polygon points="14.75,4.345 14.75,15.655 11.583,15.655 11.583,11.094 8.416,11.094 8.416,15.655 5.25,15.655 5.25,4.345 
	8.416,4.345 8.416,8.907 11.583,8.907 11.583,4.345 "/>
<g>
	<path d="M10,0.568c1.92,0,3.705,0.575,5.193,1.561l0.412-0.411C14.006,0.634,12.076,0,10,0C7.952,0,6.049,0.617,4.463,1.673
		l0.412,0.411C6.351,1.126,8.109,0.568,10,0.568z"/>
	<path d="M19.432,10c0,2.492-0.969,4.755-2.547,6.442l0.402,0.402C18.969,15.055,20,12.649,20,10c0-2.699-1.072-5.147-2.81-6.946
		l-0.402,0.402C18.424,5.152,19.432,7.458,19.432,10z"/>
	<path d="M0.568,10c0-2.572,1.03-4.902,2.699-6.603L2.865,2.996C1.094,4.8,0,7.272,0,10c0,2.677,1.055,5.108,2.768,6.903
		l0.402-0.401C1.559,14.81,0.568,12.521,0.568,10z"/>
	<path d="M10,19.432c-1.941,0-3.746-0.587-5.246-1.593l-0.408,0.409C5.954,19.353,7.9,20,10,20c2.129,0,4.1-0.667,5.721-1.801
		l-0.406-0.407C13.8,18.826,11.971,19.432,10,19.432z"/>
</g>
</svg>
