<?xml version="1.0" encoding="utf-8"?>
<!-- Generator: Adobe Illustrator 16.0.0, SVG Export Plug-In . SVG Version: 6.00 Build 0)  -->
<!DOCTYPE svg PUBLIC "-//W3C//DTD SVG 1.1//EN" "http://www.w3.org/Graphics/SVG/1.1/DTD/svg11.dtd">
<svg version="1.1" id="Layer_1" xmlns="http://www.w3.org/2000/svg" xmlns:xlink="http://www.w3.org/1999/xlink" x="0px" y="0px"
	 width="612px" height="792px" viewBox="0 0 612 792" enable-background="new 0 0 612 792" xml:space="preserve">
<polygon points="446.719,151.975 446.719,487.024 352.903,487.024 352.903,351.895 259.088,351.895 259.088,487.024 
	165.281,487.024 165.281,151.975 259.088,151.975 259.088,287.105 352.903,287.105 352.903,151.975 "/>
<g>
	<path d="M306,40.093c56.875,0,109.752,17.038,153.881,46.227l12.167-12.167C424.688,42.036,367.534,23.259,306,23.259
		c-60.662,0-117.039,18.262-164,49.547l12.174,12.175C197.896,56.625,250.006,40.093,306,40.093z"/>
	<path d="M585.398,319.5c0,73.807-28.683,140.898-75.431,190.846l11.905,11.906c49.809-53,80.367-124.285,80.367-202.752
		c0-79.96-31.742-152.47-83.231-205.763l-11.905,11.906C555.549,175.884,585.398,244.183,585.398,319.5z"/>
	<path d="M26.593,319.5c0-76.174,30.519-145.199,79.952-195.595l-11.897-11.897C42.171,165.447,9.768,238.675,9.768,319.5
		c0,79.323,31.245,151.311,82.016,204.489l11.897-11.897C55.953,461.957,26.593,394.172,26.593,319.5z"/>
	<path d="M306,598.898c-57.512,0-110.959-17.397-155.391-47.189l-12.101,12.102c47.646,32.729,105.321,51.922,167.5,51.922
		c63.053,0,121.462-19.764,169.492-53.342l-12.069-12.068C418.584,580.963,364.385,598.898,306,598.898z"/>
</g>
</svg>
