<?xml version="1.0" encoding="utf-8"?>
<!-- Generator: Adobe Illustrator 16.0.0, SVG Export Plug-In . SVG Version: 6.00 Build 0)  -->
<!DOCTYPE svg PUBLIC "-//W3C//DTD SVG 1.1//EN" "http://www.w3.org/Graphics/SVG/1.1/DTD/svg11.dtd">
<svg version="1.1" id="Layer_1" xmlns="http://www.w3.org/2000/svg" xmlns:xlink="http://www.w3.org/1999/xlink" x="0px" y="0px"
	 width="612px" height="792px" viewBox="0 0 612 792" enable-background="new 0 0 612 792" xml:space="preserve">
<path d="M266.667,365.657c0,0-157.339-36.445-168.098-39.144c-10.747-2.705-14.107-10.698-14.731-15.055l-3.183-6.145
	c-2.931,0.122-3.531-0.704-3.513-1.806c0.019-0.808,0.875-1.353,1.744-1.622l-17.95-34.731l-24.205,12.631l-2.907-6.34l33.69-17.1
	c-0.018-0.189-0.037-0.386-0.037-0.587c0-2.57,1.806-4.664,4.015-4.664c1.047,0,1.989,0.465,2.699,1.218l1.518-3.917l30.533-15.949
	l2.901,6.34l-33.629,17.075c-0.012,0.483-0.085,0.942-0.208,1.383l0.275-0.055l1.646,0.594c0,0,34.688,42.919,38.268,47.699
	c3.592,4.786,5.465,4.388,5.465,4.388l149.989,14.854c0,0,1.94,0-1.132-1.652c-3.072-1.652-2.105-4.29-2.105-4.29
	s2.344-11.39,3.109-15.355c-1.285-0.489-0.833-2.57-0.833-2.57s0.906-2.442,2.215-5.648c1.402-3.434,1.016-3.011,3.697-2.932
	l10.404,0.496v-0.844c0-0.68,0.478-1.243,1.065-1.243h0.379c0.123-1.218,1.059-2.968,2.032-2.968c0.973,0,1.903,1.75,2.025,2.968
	h0.386c0.587,0,1.059,0.557,1.059,1.243v1.175l9.021,0.422c0.024-0.826,0.11-1.848,0.374-1.848c0.44,0,0.985,0.392,1.285,0.747
	c0.146,0.177,0.238,0.71,0.281,1.199l0.704,0.031c0.024-0.845,0.11-1.977,0.385-1.977c0.447,0,0.979,0.392,1.279,0.747
	c0.166,0.184,0.258,0.802,0.312,1.322l0.502,0.024c0.007-0.514,0.03-1.138,0.05-1.432c0.062-0.581,0.416-0.71,0.832-0.636
	c0.416,0.092,1.09,0.679,1.292,1.095c0.104,0.19,0.104,0.649,0.078,1.071l4.004,0.196l0.134-1.824c0,0,0.386,0,1.064,0
	c0.68,0,1.021,1.003,1.021,1.003v0.924l7.871,0.374c0.055-0.318,0.098-0.637,0.098-0.906c0-0.9,0.881-1.548,1.677-1.548
	s1.285-0.202,1.879,0.397c0.601,0.594,0.766,0.625,1.94,0.722c0.894,0.074,1.162,0.814,1.261,1.659h0.165
	c0,0,10.991,0.483,20.159,0.881v-1.983v-2.417l3.861-1.953h0.023l-0.066-3.892c-1.664,0-2.645-0.392-2.645-1.812
	c0-1.426,0.644-1.885,0.906-2.846c0.257-0.955,1.138-5.478,1.536-7.95c0.392-2.479,0.237-4.327,0.237-4.327l-1.162-0.361
	c0,0,0-2.087,0-2.931c0-0.838,0.862-0.985,0.862-0.985v-3.935l-0.924-1.481c0,0-1.096,0.135-1.854-0.104
	c-0.767-0.233-0.906-0.361-1.188-0.6c-0.294-0.22-2.05-0.061-3.642-0.128c-1.444-0.055-4.614-0.306-5.202-0.355
	c-0.716,0.263-1.952,0.594-2.998,0.386c-1.09-0.214-1.695-0.637-2.21-0.233c-0.514,0.398-0.575,1.151-2.222,0.826
	c-1.658-0.324-1.903-1.475-2.767-1.652c-0.869-0.171-1.365-0.508-1.665-0.661c-0.287-0.159-0.208-0.343-0.208-0.343l-198.368-21.065
	c0,0-1.224-0.11-1.052-1.279c0-1.188,1.224-1.053,1.224-1.053L329.991,250.6c0,0-0.062-0.202,0.258-0.294
	c0.318-0.104,0.856-0.331,1.737-0.331c0.888,0,1.278-1.095,2.956-1.095c1.684,0,1.628,0.759,2.081,1.254
	c0.452,0.496,1.106,0.208,2.222,0.208c0.802,0,1.658,0.318,2.332,0.655v-0.447c0,0,1.756,0.062,4.125,0.062
	c2.354,0,2.839,0.795,4.233,0.795c1.401,0,1.022-1.487,1.157-1.769c0.128-0.282-0.961-1.102-0.961-1.102v-2.313
	c0,0,3.831-0.073,4.406-0.073c0.036-0.22-0.013-1.028,1.799-1.022c1.812,0.012,1.685,1.053,1.685,1.053l5.396-0.019
	c0,0-0.116,2.24-0.079,2.674c0.03,0.428-0.851,0.361-0.851,1.059c0,0.685,0.524,1.052,0.524,1.052s6.084,0.074,6.636,0.128
	c0.545,0.067,1.475,0,1.475,0l-0.006,0.306c0.729-0.269,1.695-0.526,2.57-0.422c1.106,0.147,1.72,0.526,2.216,0.092
	c0.508-0.428,0.52-1.193,2.195-0.973c1.665,0.214,1.953,1.353,2.828,1.462c0.888,0.11,1.39,0.416,1.701,0.557
	c0.294,0.141,0.22,0.33,0.22,0.33l199.084,7.907c0,0,1.225,0.024,1.103,1.206c0.066,1.193-1.163,1.138-1.163,1.138l-199.15-4.822
	c0,0,0.062,0.189-0.231,0.318c-0.312,0.116-0.852,0.385-1.728,0.44c-0.881,0.061-1.229,1.169-2.899,1.285
	c-1.665,0.11-1.658-0.648-2.143-1.12c-0.478-0.459-1.12-0.122-2.222-0.049c-0.9,0.062-1.892-0.281-2.595-0.612v0.092
	c0,0-5.318,0.331-6.061,0.202c-0.739-0.128-1.235-0.593-1.45-0.661c-0.231-0.067-0.941,0.496-1.475,0.496
	c-0.545,0-1.279-0.037-1.8,0.563c-0.508,0.594-1.077,1.188-1.077,1.188s-0.379,4.437,0.159,4.437c0.508,0,0.771,0.906,0.771,0.906
	v3.005l-0.819,0.196v8.482c0,0,0.066,3.274,0.845,3.8c0.789,0.52,1.773,1.353,1.773,1.848c0,0.496,0.153,1.763-0.647,2.301
	c-0.808,0.544-1.903,0.661-1.903,0.661v3.751h0.172l3.188,1.952v2.246v2.693l0.324,0.018c2.479,0.129,10.765,1.316,13.434,1.916
	c2.688,0.594,4.271,2.779,4.271,2.779l7.05,12.876c0,0,1.218,0,3.22,0v-7.283h1.021v7.283c4.42,0.006,11.652,0.03,18.568,0.098
	c0.581-3.966,2.43-13.323,2.43-13.323h5.232v13.434c7.467,0.196,11.126,0.636,15.729,1.138l0.288-1.304l2.479-2.864h5.165l0.092-0.6
	l1.714-0.196v-2.307h0.452l1.971,2.283h3.435v2.307h-11.83l-1.707,2.907c5.819,0.63,5.214,1.046,6.707,2.785
	c1.542,1.787,12.944,17.13,18.862,24.731c13.481,3.433,28.342,14.192,28.342,22.84c0,8.653-16.17,18.488-34.598,19.804
	c-0.429,0.031-0.868,0.067-1.31,0.098l-0.716,2.216l-0.895-0.067l-0.36-2.001c-0.539,0.037-1.077,0.086-1.635,0.135
	c-0.452,1.512-1.205,4.639-1.205,4.639l-2.474-0.294l0.724-4.101c-2.646,0.221-5.398,0.453-8.264,0.716l0.057,1.701
	c0,0-1.384,0.9-4.271,0.998c-2.65,0.092-6.519,0.288-7.246-1.726c-4.29,0.342-8.812,0.685-13.531,0.991v12.442l1.684,2.222
	c4.468,0,8.544-0.6,12.265-1.981c0.079-0.031,0.165-0.067,0.251-0.099v-8.25c0,0,7.007-0.085,8.893-0.085
	c1.892,0,2.516-0.771,3.514-0.771c0.324-0.012,0.667,0.11,0.918,0.386c0.514,0.563,0.557,1.505,0.079,2.111
	c-3.696,4.657-7.992,7.729-12.876,9.547c-4.816,1.806-10.202,2.369-16.108,2.038l-95.472-5.337c-0.704-0.042-1.255-0.74-1.218-1.562
	c0.023-0.818,0.637-1.456,1.346-1.413l13.984,0.771l1.268-1.896l0.049-8.868c-4.144-0.526-7.553-1.096-10.588-1.652
	C311.839,384.66,280.431,373.699,266.667,365.657L266.667,365.657z M411.104,389.09c-9.607,0.588-20.141,1.022-31.651,1.114
	c-20.74,0.171-34.138-0.624-43.771-1.695v8.543l1.679,2.197l72.375,4.051l1.32-1.995L411.104,389.09L411.104,389.09z
	 M430.658,400.449c2.436-1.225,4.706-2.853,6.806-4.939h-6.806V400.449z"/>
</svg>
